# xmcd
# 
# Track frame offsets:
#     150
#     8857
#     17245
#     26612
#     42307
#     57400
#     68185
#     96277
#     114790
#     129285
#     144600
#     162522
#     173782
#     193570
#     203095
#     221170
#     233362
#     243567
# 
# Disc length: 3556
# 
# Revision: 28
# Processed by: cddbd v1.5.2PL0 Copyright (c) Steve Scherf et al.
# Submitted via: fre:ac v1.0.31
# 
DISCID=f80de212
DTITLE=Johnny Cash - Johnny Cash - At San Quentin (The Complete 1969 Concert)
DYEAR=1969
DGENRE=Country
TTITLE0=Big River
TTITLE1=I Still Miss Someone
TTITLE2=Wreck Of The Old 97
TTITLE3=I Walk The Line
TTITLE4=Darlin' Companion
TTITLE5=I Don't Know Where I'm Bound
TTITLE6=Starkville City Jail
TTITLE7=San Quentin
TTITLE8=San Quentin (Encore)
TTITLE9=Wanted Man
TTITLE10=A Boy Named Sue
TTITLE11=(There'll Be) Peace In The Valley
TTITLE12=Folsom Prison Blues
TTITLE13=Ring Of Fire
TTITLE14=He Turned The Water Into Wine
TTITLE15=Daddy Sang Bass
TTITLE16=The Old Account Was Settled Long Ago
TTITLE17=Closing Medley
EXTD=
EXTT0=
EXTT1=
EXTT2=
EXTT3=
EXTT4=
EXTT5=
EXTT6=
EXTT7=
EXTT8=
EXTT9=
EXTT10=
EXTT11=
EXTT12=
EXTT13=
EXTT14=
EXTT15=
EXTT16=
EXTT17=
PLAYORDER=
